<svg xmlns="http://www.w3.org/2000/svg" width="64" height="64" viewBox="0 0 64 64">
    <g fill="none" fill-rule="evenodd">
        <path fill="#22BA8E" d="M28.2672991 21.313058C28.2672991 21.313058 28.5892857 16.2198661 19.921875 14.4553571 11.2544643 12.6908482 14.5658482 1.69308036 14.5658482 1.69308036 14.5658482 1.69308036 27.9335937-.515625 28.8337054 7.95145089 29.733817 16.4185268 28.2672991 21.313058 28.2672991 21.313058zM32.2717634 20.4107143C32.2717634 20.4107143 34.7287946 11.9888393 47.7388393 12.2879464 60.7488839 12.5870536 45.6104911 18.1222098 45.6104911 18.1222098L32.2717634 20.4107143zM31.5521071 17.5569637C31.5521071 17.5569637 30.8679554 7.01455297 30.0353661 4.30194137 29.2027768 1.58932976 43.3640491 3.51399494 41.6112589 6.43252172 39.8584688 9.35104851 31.5521071 17.5569637 31.5521071 17.5569637z"/>
    </g>
</svg>
